<?xml version="1.0" encoding="UTF-8" standalone="no"?>
<!-- Created with Inkscape (http://www.inkscape.org/) -->

<svg
   xmlns:dc="http://purl.org/dc/elements/1.1/"
   xmlns:cc="http://creativecommons.org/ns#"
   xmlns:rdf="http://www.w3.org/1999/02/22-rdf-syntax-ns#"
   xmlns:svg="http://www.w3.org/2000/svg"
   xmlns="http://www.w3.org/2000/svg"
   xmlns:sodipodi="http://sodipodi.sourceforge.net/DTD/sodipodi-0.dtd"
   xmlns:inkscape="http://www.inkscape.org/namespaces/inkscape"
   id="svg2"
   version="1.1"
   inkscape:version="0.48.3.1 r9886"
   width="1052.3625"
   height="744.1"
   xml:space="preserve"
   sodipodi:docname="logo.pdf"><metadata
     id="metadata8"><rdf:RDF><cc:Work
         rdf:about=""><dc:format>image/svg+xml</dc:format><dc:type
           rdf:resource="http://purl.org/dc/dcmitype/StillImage" /><dc:title></dc:title></cc:Work></rdf:RDF></metadata><defs
     id="defs6"><clipPath
       clipPathUnits="userSpaceOnUse"
       id="clipPath16"><path
         d="m 0,595.28 841.89,0 L 841.89,0 0,0 0,595.28 z"
         id="path18" /></clipPath><clipPath
       clipPathUnits="userSpaceOnUse"
       id="clipPath82"><path
         d="m 358.1,362.819 0,-115 138.002,8 -12,118.999 L 358.1,362.819 z"
         id="path84" /></clipPath><clipPath
       clipPathUnits="userSpaceOnUse"
       id="clipPath94"><path
         d="m 0,595.28 841.89,0 L 841.89,0 0,0 0,595.28 z"
         id="path96" /></clipPath></defs><sodipodi:namedview
     pagecolor="#ffffff"
     bordercolor="#666666"
     borderopacity="1"
     objecttolerance="10"
     gridtolerance="10"
     guidetolerance="10"
     inkscape:pageopacity="0"
     inkscape:pageshadow="2"
     inkscape:window-width="1366"
     inkscape:window-height="711"
     id="namedview4"
     showgrid="false"
     inkscape:zoom="0.47132046"
     inkscape:cx="543.42473"
     inkscape:cy="351.75499"
     inkscape:window-x="0"
     inkscape:window-y="27"
     inkscape:window-maximized="1"
     inkscape:current-layer="g78" /><g
     id="g10"
     inkscape:groupmode="layer"
     inkscape:label="logo"
     transform="matrix(1.25,0,0,-1.25,0,744.1)"><g
       id="g12"><g
         id="g14"
         clip-path="url(#clipPath16)"><g
           id="g20"
           transform="translate(338.603,205.1738)"><path
             d="m 0,0 6.864,0 0,-3.432 c 0.527,0.742 0.885,1.215 1.075,1.422 0.191,0.208 0.63,0.564 1.318,1.068 0.687,0.504 1.682,0.926 2.985,1.266 1.302,0.342 2.612,0.512 3.93,0.512 1.287,0 2.465,-0.141 3.533,-0.422 1.068,-0.282 1.939,-0.638 2.612,-1.067 0.674,-0.43 1.171,-0.837 1.494,-1.223 0.321,-0.385 0.672,-0.903 1.053,-1.556 0.235,0.267 0.454,0.526 0.66,0.778 0.205,0.252 0.637,0.667 1.297,1.245 0.66,0.577 1.723,1.096 3.19,1.555 1.467,0.459 3.035,0.69 4.707,0.69 0.909,0 1.84,-0.088 2.794,-0.266 0.952,-0.175 2.038,-0.573 3.255,-1.191 1.216,-0.619 2.023,-1.502 2.42,-2.65 0.395,-1.149 0.593,-2.562 0.593,-4.241 l 0,-14.752 -7.259,0 0,13.53 c 0,1.384 -0.294,2.519 -0.881,3.404 -0.587,0.884 -1.936,1.326 -4.048,1.326 -0.763,0 -1.446,-0.066 -2.046,-0.198 -0.602,-0.132 -1.275,-0.419 -2.024,-0.861 -0.748,-0.441 -1.269,-1.11 -1.562,-2.006 -0.293,-0.897 -0.439,-2.066 -0.439,-3.507 l 0,-11.688 -7.261,0 0,12.791 0,0.662 c 0,0.676 -0.11,1.374 -0.33,2.095 -0.22,0.721 -0.734,1.316 -1.54,1.786 -0.807,0.471 -1.738,0.706 -2.794,0.706 -0.909,0 -1.738,-0.081 -2.486,-0.243 C 10.362,-4.629 9.629,-4.967 8.91,-5.48 8.191,-5.995 7.736,-6.628 7.546,-7.377 7.354,-8.127 7.26,-9.047 7.26,-10.135 l 0,-12.129 -7.26,0 L 0,0 z"
             style="fill:#00a0e4;fill-opacity:1;fill-rule:nonzero;stroke:none"
             id="path22" /></g><g
           id="g24"
           transform="translate(398.0122,192.7656)"><path
             d="m 0,0 c -0.648,-0.176 -1.266,-0.455 -1.854,-0.836 -0.589,-0.381 -0.883,-1.027 -0.883,-1.935 0,-0.911 0.433,-1.614 1.301,-2.112 0.87,-0.5 2.054,-0.748 3.555,-0.748 1.56,0 3.024,0.3 4.393,0.902 1.369,0.6 2.302,1.276 2.803,2.024 0.5,0.748 0.788,1.305 0.861,1.672 0.074,0.366 0.111,0.857 0.111,1.473 C 8.668,0.44 6.843,0.434 4.813,0.418 2.781,0.403 1.177,0.265 0,0 m 17.547,-7.122 c 0,-0.617 0.058,-1.081 0.176,-1.39 0.117,-0.308 0.396,-0.757 0.836,-1.343 l -7.834,0 c -0.175,0.498 -0.292,0.938 -0.351,1.32 -0.059,0.381 -0.087,0.732 -0.087,1.056 -1.588,-0.939 -3.094,-1.666 -4.519,-2.178 -1.427,-0.513 -3.243,-0.771 -5.447,-0.771 -1.175,0 -2.093,0.037 -2.755,0.111 -0.662,0.073 -1.647,0.294 -2.955,0.66 -1.308,0.366 -2.469,1.128 -3.483,2.288 -1.015,1.158 -1.522,2.602 -1.522,4.334 0,3.139 1.162,5.125 3.484,5.962 2.323,0.836 5.762,1.254 10.318,1.254 l 6.879,0 c 0,1.364 -0.332,2.38 -0.993,3.047 C 8.633,7.895 6.876,8.229 4.024,8.229 2.437,8.229 1.121,8.094 0.077,7.824 -0.966,7.555 -1.621,7 -1.885,6.16 l -7.364,0 c 0.264,1.388 0.638,2.436 1.122,3.144 0.483,0.708 1.282,1.425 2.398,2.147 1.114,0.724 2.596,1.203 4.444,1.44 1.848,0.236 3.681,0.353 5.5,0.353 5.895,0 9.592,-0.845 11.088,-2.534 1.496,-1.69 2.244,-4.137 2.244,-7.34 l 0,-10.492 z"
             style="fill:#e60c80;fill-opacity:1;fill-rule:nonzero;stroke:none"
             id="path26" /></g><path
           d="m 422.027,213.93 7.26,0 0,-31.02 -7.26,0 0,31.02 z"
           style="fill:#0855a1;fill-opacity:1;fill-rule:nonzero;stroke:none"
           id="path28" /><g
           id="g30"
           transform="translate(442.9258,194.0195)"><path
             d="m 0,0 c 0,-1.207 0.139,-2.133 0.418,-2.781 0.279,-0.648 0.609,-1.162 0.99,-1.545 0.705,-0.854 1.569,-1.464 2.596,-1.832 1.027,-0.367 2.01,-0.551 2.949,-0.551 1.789,0 3.315,0.572 4.576,1.721 1.26,1.148 1.891,2.825 1.891,5.033 0,1.117 -0.168,2.133 -0.506,3.045 C 12.576,4.002 12.078,4.738 11.418,5.298 10.758,5.857 10.01,6.254 9.174,6.489 8.338,6.725 7.451,6.843 6.512,6.843 4.723,6.843 3.191,6.254 1.914,5.076 0.639,3.899 0,2.207 0,0 m -7.084,19.91 7.26,0 0,-11.395 c 0.996,0.88 2.203,1.665 3.623,2.354 1.42,0.689 3.301,1.033 5.642,1.033 3.717,0 6.565,-1.117 8.539,-3.349 1.977,-2.235 2.965,-4.952 2.965,-8.156 0,-3.379 -1.084,-6.282 -3.25,-8.706 -2.166,-2.424 -5.152,-3.636 -8.957,-3.636 -1.99,0 -3.607,0.283 -4.851,0.847 -1.244,0.567 -2.481,1.295 -3.711,2.189 l 0,-2.2 -7.26,0 0,31.019 z"
             style="fill:#75b835;fill-opacity:1;fill-rule:nonzero;stroke:none"
             id="path32" /></g><g
           id="g34"
           transform="translate(488.7305,196.8145)"><path
             d="M 0,0 C -0.088,0.58 -0.264,1.116 -0.527,1.609 -0.793,2.104 -1.24,2.531 -1.869,2.895 -2.502,3.257 -3.242,3.547 -4.092,3.766 -4.943,3.982 -5.822,4.092 -6.732,4.092 -7.611,4.092 -8.5,3.99 -9.395,3.787 -10.289,3.584 -11.037,3.279 -11.639,2.873 -12.24,2.467 -12.693,2.046 -13.002,1.61 -13.311,1.175 -13.596,0.638 -13.859,0 L 0,0 z m -14.08,-4.004 c 0.146,-0.553 0.322,-1.084 0.527,-1.594 0.205,-0.509 0.58,-1.084 1.123,-1.724 0.543,-0.641 1.364,-1.164 2.463,-1.571 1.102,-0.408 2.311,-0.611 3.631,-0.611 2.023,0 3.557,0.311 4.598,0.932 1.041,0.621 1.871,1.322 2.486,2.103 l 7.523,-0.744 c -1.583,-2.597 -3.644,-4.5 -6.181,-5.711 -2.537,-1.211 -5.463,-1.816 -8.778,-1.816 -2.171,0 -4.128,0.226 -5.875,0.679 -1.744,0.454 -3.322,1.248 -4.73,2.389 -1.406,1.14 -2.463,2.527 -3.168,4.164 -0.703,1.637 -1.055,3.288 -1.055,4.955 0,3.858 1.414,6.78 4.246,8.768 2.831,1.986 6.387,2.98 10.67,2.98 2.053,0 4.114,-0.299 6.182,-0.898 C 1.65,7.697 3.381,6.652 4.773,5.16 6.166,3.67 7.055,2.172 7.436,0.666 7.816,-0.84 8.008,-2.396 8.008,-4.004 l -22.088,0 z"
             style="fill:#85231d;fill-opacity:1;fill-rule:nonzero;stroke:none"
             id="path36" /></g><g
           id="g38"
           transform="translate(528.9023,189.8184)"><path
             d="m 0,0 c -1.408,-2.729 -3.453,-4.716 -6.139,-5.963 -2.683,-1.246 -5.404,-1.869 -8.162,-1.869 -3.929,0 -7.303,1.07 -10.119,3.212 -2.816,2.141 -4.225,5.104 -4.225,8.888 0,4.077 1.504,7.098 4.51,9.064 3.008,1.965 6.403,2.947 10.188,2.947 1.701,0 3.424,-0.219 5.17,-0.66 1.744,-0.439 3.203,-1.077 4.377,-1.914 1.173,-0.836 2.031,-1.605 2.574,-2.309 0.543,-0.705 1.004,-1.453 1.387,-2.244 L -8.008,8.271 c -0.676,0.866 -1.512,1.5 -2.508,1.903 -0.998,0.404 -2.142,0.605 -3.431,0.605 -2.084,0 -3.828,-0.615 -5.237,-1.847 -1.408,-1.233 -2.113,-2.787 -2.113,-4.664 0,-1.672 0.617,-3.19 1.85,-4.554 1.23,-1.364 3.035,-2.046 5.412,-2.046 0.879,0 1.693,0.096 2.441,0.289 0.748,0.193 1.444,0.483 2.09,0.87 0.645,0.386 1.1,0.735 1.363,1.048 0.266,0.313 0.514,0.69 0.748,1.137 L 0,0 z"
             style="fill:#ee751e;fill-opacity:1;fill-rule:nonzero;stroke:none"
             id="path40" /></g><g
           id="g42"
           transform="translate(344.3013,168.2324)"><path
             d="m 0,0 c -0.66,0 -1.32,-0.154 -1.98,-0.463 -0.903,-0.483 -1.551,-1.26 -1.947,-2.326 -0.396,-1.066 -0.594,-2.26 -0.594,-3.58 0,-2.156 0.401,-3.79 1.205,-4.901 0.802,-1.111 1.952,-1.666 3.448,-1.666 1.65,0 2.832,0.599 3.548,1.798 0.714,1.199 1.072,2.657 1.072,4.372 0,2.069 -0.424,3.713 -1.271,4.934 C 2.634,-0.611 1.474,0 0,0 m -4.521,-14.322 -1.881,0 0,23.298 1.881,0 0,-10.263 c 0.549,1.099 1.249,1.881 2.095,2.343 0.847,0.462 1.754,0.692 2.723,0.692 2.046,0 3.646,-0.813 4.802,-2.441 1.154,-1.629 1.732,-3.641 1.732,-6.039 0,-2.134 -0.512,-3.993 -1.535,-5.577 -1.023,-1.584 -2.656,-2.377 -4.9,-2.377 -1.144,0 -2.134,0.27 -2.97,0.809 -0.836,0.539 -1.486,1.325 -1.947,2.359 l 0,-2.804 z"
             style="fill:#5c5c5b;fill-opacity:1;fill-rule:nonzero;stroke:none"
             id="path44" /></g><g
           id="g46"
           transform="translate(363.606,153.9102)"><path
             d="m 0,0 -1.914,0 0,15.741 1.914,0 0,-2.509 c 0.462,0.991 1.083,1.701 1.864,2.129 0.782,0.43 1.689,0.644 2.723,0.644 0.33,0 0.693,-0.032 1.089,-0.099 l 0,-1.749 C 5.521,14.179 5.297,14.201 5,14.223 4.702,14.244 4.532,14.256 4.488,14.256 3.784,14.256 3.168,14.157 2.64,13.959 2.112,13.762 1.605,13.393 1.122,12.854 0.638,12.314 0.33,11.638 0.198,10.824 0.066,10.01 0,8.668 0,6.798 L 0,0 z"
             style="fill:#5c5c5b;fill-opacity:1;fill-rule:nonzero;stroke:none"
             id="path48" /></g><g
           id="g50"
           transform="translate(384.7593,168.3643)"><path
             d="M 0,0 C -0.727,0 -1.397,-0.132 -2.014,-0.396 -2.63,-0.66 -3.201,-1.105 -3.729,-1.732 -4.258,-2.359 -4.62,-3.13 -4.818,-4.042 c -0.199,-0.914 -0.297,-1.844 -0.297,-2.789 0,-2.111 0.467,-3.691 1.402,-4.735 0.935,-1.046 2.14,-1.568 3.613,-1.568 1.672,0 2.943,0.582 3.812,1.748 0.869,1.166 1.304,2.717 1.304,4.655 0,2.089 -0.408,3.733 -1.221,4.932 C 2.98,-0.6 1.716,0 0,0 m -0.1,-14.851 c -2.222,0 -3.96,0.76 -5.213,2.278 -1.254,1.517 -1.881,3.443 -1.881,5.775 0,2.31 0.598,4.295 1.798,5.956 1.199,1.661 2.987,2.491 5.363,2.491 2.331,0 4.102,-0.802 5.312,-2.408 1.21,-1.606 1.816,-3.52 1.816,-5.742 0,-2.441 -0.65,-4.444 -1.948,-6.006 -1.297,-1.562 -3.046,-2.344 -5.247,-2.344"
             style="fill:#5c5c5b;fill-opacity:1;fill-rule:nonzero;stroke:none"
             id="path52" /></g><g
           id="g54"
           transform="translate(411.9507,162.2266)"><path
             d="m 0,0 -0.99,-0.231 -3.894,-1.056 c -1.21,-0.33 -2.139,-0.699 -2.789,-1.106 -0.648,-0.408 -0.973,-1.05 -0.973,-1.93 0,-0.704 0.264,-1.316 0.792,-1.831 0.528,-0.518 1.309,-0.776 2.343,-0.776 0.747,0 1.507,0.159 2.277,0.478 0.77,0.319 1.424,0.748 1.963,1.287 0.54,0.539 0.886,1.105 1.041,1.7 0.153,0.594 0.23,1.363 0.23,2.31 L 0,0 z m 4.224,-8.316 c -1.43,0 -2.492,0.159 -3.184,0.478 C 0.347,-7.52 0,-6.81 0,-5.709 l 0,0.297 -0.132,-0.33 C -0.594,-6.666 -1.32,-7.381 -2.31,-7.887 -3.3,-8.393 -4.4,-8.646 -5.61,-8.646 c -1.738,0 -2.997,0.451 -3.779,1.353 -0.781,0.901 -1.171,1.881 -1.171,2.937 0,1.627 0.676,2.793 2.03,3.498 1.352,0.704 3.569,1.419 6.649,2.145 L 0,1.716 0,2.508 C 0,3.806 -0.313,4.734 -0.94,5.296 -1.567,5.857 -2.53,6.138 -3.828,6.138 -5.522,6.138 -6.633,5.779 -7.161,5.064 -7.688,4.35 -7.953,3.432 -7.953,2.31 l -2.145,0.362 c 0.087,0.572 0.193,1.057 0.314,1.453 0.12,0.396 0.385,0.912 0.792,1.551 0.406,0.637 1.072,1.154 1.996,1.551 0.924,0.396 1.958,0.593 3.102,0.593 1.671,0 2.948,-0.28 3.828,-0.841 C 0.813,6.418 1.342,5.829 1.519,5.213 1.694,4.598 1.793,4.069 1.815,3.629 1.837,3.189 1.848,2.551 1.848,1.716 l 0,-5.082 c 0,-1.497 0.116,-2.437 0.346,-2.822 0.232,-0.385 0.909,-0.578 2.03,-0.578 l 0,-1.55 z"
             style="fill:#5c5c5b;fill-opacity:1;fill-rule:nonzero;stroke:none"
             id="path56" /></g><g
           id="g58"
           transform="translate(434.8203,166.5156)"><path
             d="m 0,0 c -0.352,0.484 -0.82,0.886 -1.402,1.205 -0.584,0.318 -1.282,0.479 -2.096,0.479 -1.496,0 -2.662,-0.594 -3.498,-1.783 -0.836,-1.188 -1.254,-2.727 -1.254,-4.62 0,-1.628 0.342,-3.101 1.023,-4.422 0.682,-1.32 1.903,-1.98 3.663,-1.98 1.935,0 3.185,0.66 3.746,1.98 0.56,1.321 0.841,2.74 0.841,4.258 C 1.023,-2.573 0.682,-0.945 0,0 m 2.871,-12.605 -1.848,0 0,2.837 c -0.31,-0.923 -0.908,-1.688 -1.793,-2.293 -0.884,-0.605 -1.902,-0.908 -3.052,-0.908 -1.881,0 -3.442,0.754 -4.682,2.261 -1.238,1.507 -1.857,3.503 -1.857,5.989 0,2.487 0.646,4.472 1.941,5.957 1.295,1.485 2.926,2.227 4.897,2.227 1.127,0 2.107,-0.275 2.937,-0.824 C 0.242,2.09 0.779,1.408 1.023,0.595 l 0,10.097 1.848,0 0,-23.297 z"
             style="fill:#5c5c5b;fill-opacity:1;fill-rule:nonzero;stroke:none"
             id="path60" /></g><g
           id="g62"
           transform="translate(461.7813,157.4082)"><path
             d="m 0,0 c -0.197,-0.396 -0.379,-0.727 -0.545,-0.99 -0.164,-0.264 -0.439,-0.611 -0.824,-1.039 -0.385,-0.43 -0.963,-0.848 -1.733,-1.254 -0.771,-0.407 -1.837,-0.612 -3.201,-0.612 -2.377,0 -4.174,0.798 -5.396,2.393 -1.221,1.596 -1.83,3.516 -1.83,5.759 0,2.552 0.703,4.581 2.111,6.089 1.408,1.506 3.211,2.259 5.412,2.259 1.473,0 2.729,-0.345 3.762,-1.039 C -1.211,10.873 -0.463,9.9 0,8.646 L -1.814,8.217 c -0.397,0.924 -0.997,1.596 -1.799,2.013 -0.803,0.417 -1.623,0.627 -2.459,0.627 -1.563,0 -2.844,-0.578 -3.844,-1.732 -1.002,-1.156 -1.502,-2.745 -1.502,-4.77 0,-1.649 0.385,-3.15 1.154,-4.503 0.772,-1.354 2.114,-2.03 4.028,-2.03 0.879,0 1.687,0.203 2.425,0.611 0.737,0.407 1.336,1.083 1.797,2.029 L 0,0 z"
             style="fill:#5c5c5b;fill-opacity:1;fill-rule:nonzero;stroke:none"
             id="path64" /></g><g
           id="g66"
           transform="translate(481.25,162.2266)"><path
             d="m 0,0 -0.99,-0.231 -3.893,-1.056 c -1.211,-0.33 -2.14,-0.699 -2.789,-1.106 -0.648,-0.408 -0.973,-1.05 -0.973,-1.93 0,-0.704 0.264,-1.316 0.791,-1.831 0.528,-0.518 1.309,-0.776 2.344,-0.776 0.746,0 1.506,0.159 2.276,0.478 0.771,0.319 1.425,0.748 1.964,1.287 0.54,0.539 0.885,1.105 1.04,1.7 0.154,0.594 0.23,1.363 0.23,2.31 L 0,0 z m 4.225,-8.316 c -1.43,0 -2.493,0.159 -3.184,0.478 C 0.348,-7.52 0,-6.81 0,-5.709 l 0,0.297 -0.131,-0.33 c -0.463,-0.924 -1.189,-1.639 -2.178,-2.145 -0.99,-0.506 -2.091,-0.759 -3.3,-0.759 -1.739,0 -2.998,0.451 -3.78,1.353 -0.781,0.901 -1.17,1.881 -1.17,2.937 0,1.627 0.676,2.793 2.03,3.498 1.351,0.704 3.568,1.419 6.648,2.145 L 0,1.716 0,2.508 C 0,3.806 -0.313,4.734 -0.939,5.296 -1.566,5.857 -2.529,6.138 -3.828,6.138 -5.521,6.138 -6.633,5.779 -7.16,5.064 -7.688,4.35 -7.953,3.432 -7.953,2.31 l -2.145,0.362 c 0.088,0.572 0.194,1.057 0.315,1.453 0.119,0.396 0.385,0.912 0.791,1.551 0.406,0.637 1.072,1.154 1.996,1.551 0.924,0.396 1.959,0.593 3.103,0.593 1.67,0 2.948,-0.28 3.827,-0.841 C 0.814,6.418 1.342,5.829 1.52,5.213 1.695,4.598 1.793,4.069 1.816,3.629 1.838,3.189 1.848,2.551 1.848,1.716 l 0,-5.082 c 0,-1.497 0.117,-2.437 0.347,-2.822 0.231,-0.385 0.909,-0.578 2.03,-0.578 l 0,-1.55 z"
             style="fill:#5c5c5b;fill-opacity:1;fill-rule:nonzero;stroke:none"
             id="path68" /></g><g
           id="g70"
           transform="translate(501.2813,162.7871)"><path
             d="m 0,0 c 1.035,-0.264 1.75,-0.5 2.146,-0.709 0.395,-0.21 0.776,-0.518 1.139,-0.924 0.361,-0.408 0.637,-0.847 0.824,-1.32 0.188,-0.474 0.282,-0.974 0.282,-1.502 0,-1.275 -0.508,-2.399 -1.52,-3.365 -1.012,-0.969 -2.475,-1.453 -4.389,-1.453 -0.923,0 -1.693,0.105 -2.308,0.314 -0.617,0.209 -1.178,0.483 -1.684,0.824 -0.506,0.342 -0.953,0.77 -1.336,1.287 -0.386,0.518 -0.722,1.118 -1.008,1.799 l 1.915,0.66 c 0.22,-0.836 0.699,-1.568 1.435,-2.195 0.736,-0.627 1.733,-0.939 2.986,-0.939 1.276,0 2.262,0.296 2.954,0.89 0.693,0.594 1.041,1.33 1.041,2.211 0,0.902 -0.315,1.545 -0.942,1.931 -0.627,0.384 -1.435,0.677 -2.426,0.874 l -1.88,0.396 c -1.145,0.264 -2.112,0.67 -2.905,1.221 -0.791,0.55 -1.187,1.496 -1.187,2.838 0,1.122 0.412,2.134 1.238,3.036 0.824,0.901 2.293,1.353 4.404,1.353 1.475,0 2.608,-0.243 3.401,-0.726 C 2.971,6.018 3.504,5.539 3.779,5.065 4.055,4.592 4.258,4.125 4.391,3.663 L 2.51,3.201 C 2.42,3.553 2.295,3.872 2.129,4.158 1.965,4.443 1.684,4.703 1.287,4.934 0.893,5.164 0.484,5.324 0.066,5.412 -0.352,5.5 -0.813,5.544 -1.318,5.544 -2.221,5.544 -3.051,5.362 -3.811,5 -4.57,4.637 -4.949,3.938 -4.949,2.904 c 0,-0.748 0.281,-1.299 0.842,-1.65 0.56,-0.352 1.38,-0.649 2.459,-0.891 L 0,0 z"
             style="fill:#5c5c5b;fill-opacity:1;fill-rule:nonzero;stroke:none"
             id="path72" /></g><g
           id="g74"
           transform="translate(519.6953,157.2432)"><path
             d="m 0,0 c 0,-0.704 0.109,-1.199 0.33,-1.485 0.219,-0.286 0.539,-0.429 0.957,-0.429 0.33,0 0.676,0.097 1.039,0.29 0.363,0.193 0.742,0.437 1.139,0.732 l 0,-1.979 C 2.695,-3.377 1.859,-3.63 0.957,-3.63 c -1.299,0 -2.096,0.324 -2.393,0.973 -0.296,0.649 -0.445,1.853 -0.445,3.614 l 0,9.801 -3.301,0 0,1.65 3.301,0 0,6.698 1.881,0 0,-6.698 3.465,0 0,-1.65 L 0,10.758 0,0 z"
             style="fill:#5c5c5b;fill-opacity:1;fill-rule:nonzero;stroke:none"
             id="path76" /></g></g></g><g
       id="g78"><g
         id="g80"
         clip-path="url(#clipPath82)"><g
           id="g86"
           transform="translate(501.3848,389.8184)"><path
             d="m 0,0 1.543,0 c 0.439,0 2.016,-1.579 4.736,-4.735 l 0,-3.636 -0.552,0 c -0.293,0 -2.534,2.606 -6.719,7.821 L 0,0 z m -5.729,-71.616 c 1.465,-1.249 3.043,-4.372 4.737,-9.363 0.439,0 2.164,-4.887 5.178,-14.656 1.392,-1.542 2.093,-3.084 2.093,-4.626 l 0,-5.289 -0.992,0 -4.185,12.561 c -0.813,0.441 -2.204,4.111 -4.188,11.017 -2.5,3.452 -3.746,6.755 -3.746,9.918 l 1.103,0.438 z M -9.918,0 -6.281,0 c 2.933,-2.35 5.908,-5.471 8.926,-9.366 2.423,-1.174 3.634,-2.753 3.634,-4.735 l 0,-3.086 -0.552,0 C -1.914,-8.669 -7.127,-3.268 -9.918,-0.99 l 0,0.99 z m -7.271,0 2.535,0 C -4.297,-10.723 2.678,-18.729 6.279,-24.018 l 0,-3.636 -0.992,0 c 0,0.806 -7.492,9.696 -22.476,26.664 l 0,0.99 z m -10.467,0 3.636,0 8.924,-7.271 7.821,-9.476 c 4.189,-6.17 7.824,-10.688 10.912,-13.551 1.761,-4.409 2.642,-6.831 2.642,-7.273 l 0,-3.745 -0.992,0 c -1.176,4.553 -4.15,8.924 -8.922,13.11 -0.959,3.38 -6.873,10.688 -17.74,21.927 -1.543,0 -3.637,1.907 -6.281,5.729 l 0,0.55 z m 0.552,-50.13 c 5.508,-10.432 8.264,-18.99 8.264,-25.672 l 2.643,-9.364 c 0.951,0 1.65,-2.279 2.093,-6.833 l 6.829,-16.636 c 4.48,-7.642 7.089,-11.5 7.824,-11.569 1.764,-0.812 3.672,-2.532 5.73,-5.179 l 0,-4.187 -0.552,0 c -3.235,2.716 -5.838,5.51 -7.821,8.375 -3.457,0 -8.67,10.799 -15.644,32.392 0,1.763 -1.213,5.068 -3.637,9.915 l -6.281,24.02 c -0.369,1.908 -0.549,3.305 -0.549,4.185 l 1.101,0.553 z m -3.197,3.635 0.551,0 c 0.512,0 1.027,-0.516 1.545,-1.541 0,-0.736 -0.332,-1.102 -0.992,-1.102 l -1.104,1.654 0,0.989 z m 5.289,-106.542 c 0.66,-0.151 0.992,-0.516 0.992,-1.102 l 0,-0.549 c 0,-0.662 -0.332,-0.994 -0.992,-0.994 l -11.017,0 0,0.994 c 5.8,1.1 9.474,1.651 11.017,1.651 m -12.119,105.99 0,-1.541 c 1.467,-6.392 3.744,-13.37 6.83,-20.935 1.028,-7.197 2.24,-12.745 3.637,-16.636 0,-7.491 4.002,-17.075 12.01,-28.757 l 1.101,-0.549 0.553,0 0,0.549 c -1.695,2.205 -3.088,5.326 -4.189,9.366 -1.541,0.222 -3.635,5.617 -6.28,16.197 -1.031,0 -1.914,3.999 -2.646,12.009 -4.557,10.281 -6.828,17.444 -6.828,21.485 -1.694,2.715 -2.534,4.259 -2.534,4.627 0.288,0.662 0.44,1.357 0.44,2.094 l 0,0.55 c 0,0.512 -0.701,1.026 -2.094,1.541 m -1.543,-65.224 c 0,-2.498 1.065,-3.747 3.197,-3.747 -1.179,2.496 -2.058,3.747 -2.646,3.747 l -0.551,0 z m -0.551,7.823 c 0.366,-2.132 0.918,-3.196 1.653,-3.196 1.027,0.367 1.543,0.734 1.543,1.102 -1.032,4.26 -1.543,7.381 -1.543,9.365 -0.813,0 -1.362,-2.422 -1.653,-7.271 M -46.498,0 l 3.637,0 c 1.689,0 7.968,-5.215 18.841,-15.643 0.147,-1.397 0.661,-2.094 1.541,-2.094 l 0,1.543 C -24.9,-11.569 -29.604,-6.5 -36.58,-0.99 l -0.551,0 0,0.99 4.188,0 c 6.898,-6.466 11.457,-9.952 13.66,-10.465 0,-0.298 2.426,-3.086 7.271,-8.375 4.772,-8.371 7.748,-12.89 8.926,-13.552 6.24,-9.77 9.365,-15.5 9.365,-17.186 l 0,-4.74 -0.992,0 c -1.693,5.51 -4.668,10.539 -8.922,15.095 -5.951,10.502 -10.654,17.85 -14.103,22.036 0,1.027 -0.373,1.544 -1.102,1.544 l -0.443,0 0,-1.544 c 1.763,-2.571 3.857,-6.06 6.283,-10.467 0,-1.03 4.145,-8.192 12.447,-21.484 2.35,-1.251 4.629,-5.95 6.832,-14.103 l 0,-2.094 -0.992,0 c -3.744,9.62 -8.117,16.782 -13.111,21.486 -3.526,6.312 -6.651,11.53 -9.365,15.643 l -1.102,-0.55 c -2.793,2.35 -4.188,4.629 -4.188,6.832 l 0,1.542 c -2.351,0 -4.076,1.395 -5.177,4.188 -3.6,2.054 -8.303,6.425 -14.104,13.11 -2.351,0 -3.931,0.845 -4.738,2.534 l 0,0.55 z m -0.991,-124.391 0.441,0 c 1.614,0.511 4.773,2.092 9.476,4.739 -0.371,1.392 -1.432,2.093 -3.194,2.093 -1.033,0 -3.271,-2.277 -6.723,-6.832 m -6.281,83.626 0,-0.551 c 0,-2.497 1.541,-7.53 4.628,-15.096 l -0.439,-1.099 c 0.439,-2.059 0.949,-3.086 1.543,-3.086 0,0.366 0.178,0.55 0.549,0.55 0,1.765 -1.762,8.189 -5.288,19.282 l -0.993,0 z m -2.093,-6.282 0,-1.541 0.441,-2.644 c 0.731,0 1.102,0.366 1.102,1.102 l 0,2.094 c 0,0.661 -0.371,0.989 -1.102,0.989 l -0.441,0 z M -57.955,0 l 5.178,0 c 3.671,0 10.138,-5.215 19.39,-15.643 l 1.545,0.99 c 5.578,-4.555 9.916,-10.101 13.002,-16.637 1.983,0 5.287,-5.949 9.914,-17.848 l 0.553,0 1.541,1.102 c 3.889,-3.601 7.232,-9.515 10.025,-17.739 0.883,0 1.911,-2.094 3.086,-6.279 l 0,-5.73 -0.552,0 c -1.176,0 -2.387,3.449 -3.635,10.356 -3.897,7.565 -7.016,12.448 -9.367,14.652 l 0,-0.99 C 1.764,-73.083 6.279,-84.25 6.279,-87.259 l 0,-5.18 -0.992,0 c 0,2.497 -2.279,8.594 -6.832,18.291 0,1.614 -1.209,4.039 -3.635,7.271 -1.322,2.348 -3.084,7.053 -5.289,14.101 -3.894,8.08 -7.199,13.996 -9.916,17.741 -0.736,3.228 -4.226,8.115 -10.467,14.653 l 0,-0.991 c 4.629,-8.081 8.299,-14.03 11.02,-17.85 0,-1.175 1.576,-3.785 4.736,-7.824 0,-0.806 1.543,-5.142 4.627,-13 0,-1.249 1.393,-4.039 4.188,-8.371 l 0,-0.553 -1.543,-0.99 c -4.703,4.771 -8.008,11.898 -9.914,21.373 -1.619,1.617 -3.196,4.223 -4.741,7.823 -4.259,4.626 -8.447,11.238 -12.558,19.83 -0.883,0 -1.729,1.58 -2.535,4.741 -9.331,10.136 -16.127,15.204 -20.383,15.204 l 0,0.99 z m 24.019,-146.316 c 1.907,-1.03 4.186,-1.873 6.832,-2.534 l 2.536,0.44 1.099,0 12.559,-3.637 c 5.217,-0.955 7.824,-1.982 7.824,-3.084 l 0,-0.551 -6.279,0 -14.655,3.086 c -0.88,0 -2.095,0.696 -3.636,2.094 -0.592,-1.398 -1.803,-2.094 -3.637,-2.094 0,0.51 -0.549,1.061 -1.65,1.653 l -18.732,-4.739 -6.833,0 0,0.551 c 0,1.172 4.697,2.717 14.106,4.629 0.291,1.027 3.595,2.273 9.914,3.744 0,0.291 0.183,0.442 0.552,0.442 m -2.644,26.112 1.103,-1.542 0,-0.99 c 0,-0.518 -3.306,-2.094 -9.918,-4.74 l -0.55,0 c -0.735,0 -1.103,0.512 -1.103,1.541 l -0.441,0 c -8.304,-4.626 -12.49,-7.751 -12.56,-9.364 l 0.549,0 c 0.807,0.953 2.867,1.983 6.172,3.086 2.569,2.128 5.909,3.195 10.027,3.195 0.51,1.028 2.934,2.239 7.272,3.635 l 9.365,-3.084 0,0.441 -8.813,7.383 0,0.439 -1.103,0 z m -24.02,74.702 c 0.731,-5.951 1.1,-10.798 1.1,-14.545 l 0.992,-0.55 c 0.365,0.661 0.553,1.176 0.553,1.544 l -1.545,13.551 -1.1,0 z m -15.093,20.382 0,-1.542 3.084,0 c 5.654,-4.115 9.474,-9.144 11.459,-15.095 l 0.55,0 0.551,0.992 0,1.102 c 0,3.305 -3.305,7.637 -9.918,13.001 0,1.027 -1.912,1.542 -5.726,1.542 m 41.205,-114.364 c 9.623,0 17.478,-2.975 23.578,-8.926 l 0,-1.543 -1.651,0 c -1.033,0 -3.636,1.215 -7.824,3.637 -0.662,-0.293 -1.176,-0.442 -1.541,-0.442 -0.222,1.028 -1.617,1.545 -4.189,1.545 l -13.11,0 c -1.693,0 -3.414,-0.517 -5.177,-1.545 -0.592,0.291 -1.289,0.442 -2.096,0.442 -0.735,-1.1 -4.558,-2.83 -11.457,-5.178 -8.084,-2.795 -12.967,-4.188 -14.654,-4.188 l -4.739,0 0,0.994 c 1.834,0 5.139,1.391 9.916,4.186 2.055,0 6.241,1.391 12.561,4.186 1.172,0.953 3.78,2.019 7.823,3.195 0,1.172 3.857,2.205 11.571,3.086 0,0.363 0.331,0.551 0.989,0.551 m -55.308,-0.551 0.44,0 c 0.731,-0.074 1.102,-0.408 1.102,-0.992 l 0,-1.102 c -1.033,-1.693 -2.246,-2.535 -3.636,-2.535 -0.37,0.662 -0.553,1.172 -0.553,1.543 0.442,1.392 1.323,2.424 2.647,3.086 m 2.091,96.624 c -3.674,-8.007 -6.829,-13.404 -9.475,-16.194 l 0,-0.992 0.553,0 c 3.153,2.128 6.459,7.344 9.915,15.645 l 0,1.541 -0.993,0 z m 37.022,-26.112 c -2.204,-13.662 -6.212,-23.575 -12.012,-29.748 -11.239,-10.872 -18.915,-17.666 -23.025,-20.381 -0.222,0 -2.831,-1.729 -7.823,-5.178 -5.584,-2.646 -8.374,-4.407 -8.374,-5.29 l 0,-0.441 1.102,0 c 6.095,1.909 9.586,3.637 10.467,5.178 0.588,1.103 3.195,2.826 7.823,5.179 l 16.195,14.104 c 0,0.732 1.392,1.983 4.187,3.746 0,1.614 2.239,4.222 6.721,7.824 2.789,7.122 4.884,14.946 6.28,23.466 -0.295,0.661 -0.439,1.173 -0.439,1.541 l -1.102,0 z m -57.954,0 0.551,0 c 3.891,1.617 8.738,9.99 14.543,25.123 3.085,4.848 6.39,7.271 9.917,7.271 0,0.587 1.246,0.955 3.745,1.102 0.66,-0.736 1.688,-1.102 3.084,-1.102 -0.81,2.129 -2.203,3.195 -4.186,3.195 -7.423,0 -14.212,-7.492 -20.383,-22.478 0,-2.35 -2.424,-6.719 -7.271,-13.111 m -3.195,3.748 0.549,0 c 2.129,1.467 4.037,4.588 5.73,9.363 0,1.544 1.061,3.969 3.195,7.274 0,2.425 2.606,6.279 7.824,11.567 3.525,4.408 7.526,7.162 12.009,8.265 l 0.55,0 c 1.027,-0.81 3.266,-1.471 6.721,-1.984 3.816,-2.864 5.729,-6.207 5.729,-10.026 -0.293,-5.731 -0.442,-10.063 -0.442,-13.002 l 0.992,0 c 0.733,4.26 1.246,9.659 1.543,16.197 -2.574,6.244 -6.576,9.365 -12.009,9.365 0,0.515 -0.701,1.027 -2.095,1.545 -6.464,-1.691 -12.007,-5.327 -16.636,-10.91 -5.949,-8.007 -8.923,-14.471 -8.923,-19.39 -1.398,-1.178 -2.974,-3.934 -4.737,-8.264 m -4.627,-39.225 0,-1.1 c 5.948,1.983 13.771,7.233 23.467,15.755 11.161,10.502 16.746,17.112 16.746,19.832 4.476,3.305 6.721,7.307 6.721,12.01 -0.293,0.659 -0.442,1.173 -0.442,1.542 l -0.549,0 c -0.662,0 -1.177,-1.728 -1.541,-5.178 -1.254,-3.673 -3.349,-6.466 -6.283,-8.374 -9.108,-12.12 -16.271,-19.429 -21.483,-21.926 -0.813,-1.102 -6.026,-4.775 -15.644,-11.02 l -0.992,-1.541 z m 11.458,-17.299 c 0.73,-0.074 1.102,-0.402 1.102,-0.99 l 0,-0.551 c -0.296,-0.662 -3.457,-2.204 -9.478,-4.627 l -8.814,0 -1.651,-1.103 -2.093,0 c -0.662,0 -0.992,0.367 -0.992,1.103 l 0,0.991 c 0,0.512 0.51,1.027 1.542,1.541 0.145,0 0.661,-0.328 1.543,-0.989 l 18.841,4.625 z m -23.469,40.327 0,-0.551 0.441,0 c 5.289,5.803 8.595,10.136 9.915,13 0.952,0 3.747,6.096 8.376,18.291 5.653,13.146 11.748,22.036 18.287,26.662 4.994,0 8.849,1.065 11.57,3.197 l 3.084,0 c 4.039,0 7.342,-1.068 9.918,-3.197 1.762,0 4.221,-2.607 7.379,-7.822 0.588,-1.542 1.801,-2.939 3.637,-4.185 l 0.441,0 0,0.55 c 0,1.246 -2.244,4.881 -6.721,10.907 0,1.544 -4.187,3.489 -12.56,5.842 l -4.186,0 c -6.026,0 -11.94,-2.28 -17.738,-6.834 -5.952,-7.786 -8.926,-11.974 -8.926,-12.558 0,-0.15 -1.728,-3.272 -5.178,-9.366 0,-1.398 -1.066,-3.858 -3.196,-7.381 -1.471,-2.865 -2.684,-6.501 -3.635,-10.908 -1.618,-1.029 -3.347,-3.491 -5.178,-7.383 -0.592,0 -2.5,-2.753 -5.73,-8.264 m -0.552,6.17 c 1.544,0.221 2.936,2.166 4.189,5.841 1.245,0 2.128,2.422 2.642,7.272 -4.558,-6.247 -6.831,-10.617 -6.831,-13.113 m -1.103,-48.038 1.103,0 c 0.662,-0.075 0.993,-0.404 0.993,-0.99 0,-0.881 -3.304,-2.094 -9.916,-3.637 l -0.442,0 c -0.515,0 -1.068,0.511 -1.652,1.543 l 0,0.552 c 0,1.169 3.305,2.017 9.914,2.532 m 16.748,55.971 c -8.081,-11.755 -12.601,-17.704 -13.55,-17.848 -1.176,0 -2.244,-1.214 -3.198,-3.636 -3.744,-3.308 -8.591,-8.705 -14.542,-16.197 l 0,-0.55 c 12.632,9.839 21.335,19.095 26.113,27.764 3.009,2.497 5.103,5.802 6.28,9.918 l -1.103,0.549 z m -19.83,-44.402 2.091,0 0,-1.1 c -0.954,-1.766 -2.532,-2.647 -4.737,-2.647 -4.998,-3.455 -8.116,-5.177 -9.363,-5.177 -0.739,0 -1.104,0.329 -1.104,0.991 l 0,1.103 c 0.661,0.951 2.936,2.164 6.831,3.636 0,0.51 0.697,1.026 2.093,1.541 0.662,-0.295 1.172,-0.441 1.543,-0.441 0.071,0.441 0.952,1.138 2.646,2.094 m -13.113,-30.301 c 1.173,-0.737 2.055,-1.1 2.646,-1.1 0.218,0 0.915,0.18 2.093,0.551 1.468,-0.881 6.35,-1.764 14.654,-2.645 0,-0.371 0.51,-0.55 1.542,-0.55 l 0.552,0 c 0.805,0 2.382,0.55 4.737,1.652 l 1.982,-1.102 3.747,0.553 4.629,-0.553 c 1.321,0.733 2.714,1.102 4.185,1.102 l 0.552,0 3.084,-0.549 c 3.452,1.025 5.729,1.541 6.831,1.541 0.732,-0.074 1.102,-0.406 1.102,-0.992 l 0,-0.549 c 0,-1.619 -9.074,-3.383 -27.215,-5.289 0,0.953 -1.396,1.652 -4.186,2.092 -1.765,-1.029 -2.975,-1.543 -3.637,-1.543 l -11.017,2.646 -0.992,-0.552 c -4.628,0 -7.423,0.88 -8.373,2.646 l 0,0.99 c 0.365,1.102 1.394,1.651 3.084,1.651 m 8.924,21.377 0.553,-1.104 c -4.117,-4.115 -7.091,-6.168 -8.924,-6.168 l -3.637,-1.103 0,2.094 c 0,1.541 2.975,3.121 8.926,4.74 0,0.661 1.023,1.17 3.082,1.541 m -11.016,0.991 1.652,0 0,-0.991 c 0,-0.516 -0.701,-1.213 -2.092,-2.094 l -0.552,0 0,2.094 c 0.071,0.662 0.401,0.991 0.992,0.991 m 11.016,11.569 c 0.146,-0.736 0.512,-1.099 1.104,-1.099 -1.398,-3.087 -4.186,-4.631 -8.375,-4.631 -1.911,-2.134 -3.491,-3.194 -4.737,-3.194 l 0,3.194 c 0,0.808 1.908,1.502 5.73,2.094 2.274,2.424 4.368,3.636 6.278,3.636 m -8.924,20.381 0.553,0 c 0.729,-0.144 1.1,-0.515 1.1,-1.099 l 0,-0.552 c -2.278,-3.82 -3.675,-5.73 -4.185,-5.73 l -0.552,0 0,1.654 c 0,1.614 1.027,3.524 3.084,5.727 m 80.982,86.712 c 7.563,-1.323 12.815,-3.232 15.757,-5.729 9.62,-9.476 15.02,-16.454 16.194,-20.935 5.436,-7.64 8.887,-13.404 10.358,-17.296 4.189,-5.877 6.279,-10.91 6.279,-15.095 0.883,0 1.945,-5.399 3.197,-16.197 1.762,-3.746 4,-10.172 6.721,-19.281 L 0,-111.829 l 2.645,-2.095 0,0.553 -3.637,9.363 c 0.289,0.735 0.439,1.286 0.439,1.654 -1.47,0.88 -3.379,5.73 -5.728,14.543 -1.914,2.497 -3.453,6.501 -4.629,12.009 -1.395,1.246 -2.09,2.643 -2.09,4.186 l 0,2.645 0.988,0 c 1.248,0 3.344,-4.884 6.283,-14.652 4.254,-9.038 6.536,-15.135 6.831,-18.291 1.982,-1.398 3.707,-5.215 5.177,-11.457 l 0,-5.73 -0.552,0 -1.541,0.99 c -0.881,-0.661 -1.397,-0.99 -1.541,-0.99 l -0.553,0 c -1.473,0 -4.59,5.213 -9.367,15.642 0,1.839 -1.58,6.024 -4.737,12.564 -0.369,2.935 -1.761,7.635 -4.185,14.101 l 0.551,0.992 c -1.032,1.028 -1.913,5.215 -2.645,12.561 -0.881,0 -2.277,3.671 -4.188,11.017 -1.175,0.806 -3.271,4.113 -6.279,9.918 -0.662,0 -1.506,1.577 -2.535,4.735 0.293,0.661 0.441,1.176 0.441,1.544 -1.32,0.806 -6.023,6.903 -14.103,18.29 -5.804,7.635 -11.348,11.458 -16.637,11.458 0,0.733 -1.396,1.101 -4.187,1.101 0,-0.218 -0.369,-0.771 -1.1,-1.651 l 0,-0.442 0.549,0 c 0.809,0 1.502,0.144 2.094,0.442 10.134,-4.262 17.112,-9.661 20.935,-16.197 0,-0.808 3.637,-5.839 10.908,-15.095 1.026,-1.763 1.541,-3.524 1.541,-5.29 l 0,-0.989 -0.99,0 c -0.736,0 -3.195,3.304 -7.383,9.917 -3.523,3.596 -6.65,7.966 -9.366,13.11 -8.745,8.665 -17.079,13.002 -25.011,13.002 -8.151,-1.104 -14.251,-3.526 -18.288,-7.272 l -9.476,-5.73 c 0,-2.864 -0.846,-4.814 -2.533,-5.838 -4.998,-4.188 -10.949,-14.62 -17.851,-31.292 -0.295,-1.397 -0.441,-2.609 -0.441,-3.636 1.469,1.027 5.47,8.666 12.01,22.916 6.461,10.943 12.375,17.592 17.738,19.945 5.656,5.506 8.961,8.261 9.918,8.261 2.349,0.366 4.255,0.552 5.728,0.552 l 5.729,0 c 6.978,0 14.984,-5.585 24.02,-16.746 3.232,-5.879 5.179,-8.816 5.841,-8.816 l 0,-1.102 2.533,0 c 2.494,-3.084 4.586,-7.088 6.281,-12.009 1.17,-3.38 2.383,-6.319 3.635,-8.816 l -0.439,-1.099 c 1.392,-2.502 4,-11.534 7.822,-27.106 l 6.279,-19.391 9.916,-16.749 c 7.637,-6.168 11.459,-10.504 11.459,-13 l 0,-2.642 -0.552,0 c -8.008,7.491 -13.737,13.255 -17.186,17.298 -1.982,0 -5.143,3.12 -9.475,9.364 0,1.027 -2.058,5.398 -6.17,13.112 -1.398,8.666 -2.974,14.064 -4.738,16.195 l 0,-1.102 c 0,-2.424 1.391,-9.733 4.186,-21.926 2.568,-2.497 4.994,-5.988 7.271,-10.465 0.662,0 2.936,-2.426 6.832,-7.271 1.102,0 7.711,-6.467 19.832,-19.393 l 0,-2.535 -0.992,0 c -7.049,5.654 -11.424,9.658 -13.111,12.01 -1.102,0 -5.803,5.213 -14.102,15.647 -1.838,0.88 -3.566,3.303 -5.178,7.273 -1.837,0 -3.787,3.998 -5.839,12.006 0,0.368 0.179,0.916 0.55,1.653 -2.06,6.682 -3.084,11.019 -3.084,13.001 l 0,10.468 c -0.957,10.502 -2.355,16.93 -4.187,19.28 -0.738,6.244 -3.897,13.735 -9.478,22.479 -5.29,7.195 -9.624,11.748 -13.001,13.66 -3.234,2.057 -9.515,3.086 -18.84,3.086 -1.397,-0.516 -2.094,-1.029 -2.094,-1.542 l 0,-0.551 5.729,0 c 9.696,0 15.276,-1.728 16.748,-5.179 4.553,-4.923 7.34,-8.412 8.371,-10.469 3.158,0 6.463,-5.397 9.92,-16.194 3.815,-14.985 5.729,-28.391 5.729,-40.218 1.391,0 2.092,-4.185 2.092,-12.559 0.513,0 1.392,-2.608 2.646,-7.822 6.612,-8.372 10.246,-12.56 10.908,-12.56 l 6.28,-6.831 c 0,-1.25 6.974,-8.374 20.933,-21.374 l 0,-1.102 -0.552,-0.992 c -2.422,0.881 -5.913,3.486 -10.465,7.822 -1.985,0 -5.11,2.975 -9.366,8.924 -3.525,4.477 -9.625,11.42 -18.289,20.824 0,2.57 -0.88,4.334 -2.644,5.289 l 0,-1.099 c 1.392,-2.358 2.094,-4.45 2.094,-6.284 -0.662,-0.074 -0.993,-0.404 -0.993,-0.989 0.071,-0.959 3.045,-3.417 8.924,-7.384 6.901,-6.611 10.358,-10.763 10.358,-12.451 l -0.442,-1.099 c 2.866,-1.323 5.289,-3.416 7.272,-6.282 0.662,0 4.476,-3.123 11.461,-9.365 1.761,-0.219 2.642,-0.736 2.642,-1.543 l -0.992,-0.551 -3.195,0 c -4.041,3.452 -6.651,5.18 -7.821,5.18 -1.253,0.883 -2.832,2.643 -4.74,5.289 -1.691,0 -3.599,1.391 -5.728,4.186 -7.272,2.423 -13.701,3.634 -19.28,3.634 -6.025,0 -13.885,-2.607 -23.58,-7.82 -5.289,-1.396 -8.084,-2.094 -8.375,-2.094 l -3.636,0 c 0,-2.132 -5.034,-4.406 -15.094,-6.832 0,-0.662 -1.761,-0.992 -5.289,-0.992 l -1.541,0 c -0.517,0 -1.031,0.514 -1.542,1.543 1.025,1.762 2.421,2.645 4.186,2.645 1.833,-0.371 3.374,-0.551 4.628,-0.551 8.222,4.187 12.779,6.281 13.663,6.281 0.659,-0.373 1.172,-0.553 1.541,-0.553 0,1.325 4.516,2.901 13.551,4.739 7.564,5.214 14.36,7.82 20.385,7.82 l 1.103,0 c 1.983,0 4.772,-0.184 8.373,-0.549 l 0.989,0.549 c 3.674,-1.76 5.951,-2.641 6.832,-2.641 l 0,0.549 c -0.735,1.469 -2.313,2.68 -4.737,3.637 -1.912,-0.369 -3.49,-0.551 -4.738,-0.551 -3.234,1.393 -5.472,2.093 -6.719,2.093 -2.355,-1.031 -8.121,-2.573 -17.3,-4.628 -3.897,-3.82 -6.83,-5.731 -8.815,-5.731 l -1.103,0 0,2.538 -0.549,0 c -0.074,-0.518 -4.408,-2.756 -13.002,-6.723 -1.322,0 -3.414,-0.699 -6.279,-2.094 -9.77,-2.353 -14.655,-4.627 -14.655,-6.83 -0.514,0 -2.422,-0.516 -5.73,-1.543 -1.251,0.289 -1.946,0.443 -2.091,0.443 -4.187,-0.662 -7.493,-0.994 -9.918,-0.994 l -33.493,0 c -0.661,0 -0.992,0.332 -0.992,0.994 l 0,1.651 c 0.071,0.662 0.401,0.99 0.992,0.99 0.585,0 3.045,-0.183 7.381,-0.549 4.112,0.731 6.536,1.102 7.272,1.102 3.156,-1.031 5.25,-1.543 6.281,-1.543 0.95,0 2.019,0.328 3.194,0.99 2.79,-0.662 5.03,-0.99 6.722,-0.99 14.322,1.543 21.483,3.084 21.483,4.627 l 15.096,5.838 c 0.661,-0.367 1.172,-0.549 1.542,-0.549 0,0.662 4.552,2.9 13.662,6.721 3.084,2.57 6.207,5.545 9.367,8.924 1.906,1.173 6.975,5.691 15.205,13.552 l 0.441,3.746 0,0.992 c -1.765,-0.736 -3.859,-3.712 -6.282,-8.925 -1.693,-0.219 -7.091,-5.068 -16.196,-14.543 -9.697,-4.555 -16.823,-7.534 -21.375,-8.922 l -1.543,0 c -0.737,0 -1.1,0.363 -1.1,1.097 0.07,0.883 3.925,2.608 11.569,5.18 10.281,5.361 18.101,10.944 23.464,16.748 3.013,4.773 6.504,9.475 10.469,14.103 0.223,4.849 0.733,7.271 1.545,7.271 l -0.551,1.102 0,1.545 c 0,1.982 0.364,5.47 1.102,10.464 -0.738,3.969 -1.102,6.722 -1.102,8.264 l 0,7.384 c -3.086,14.247 -5.33,22.951 -6.723,26.112 -1.102,2.347 -2.168,3.929 -3.194,4.735 l -0.552,0 5.29,-13.661 c 0,-1.982 1.211,-8.592 3.636,-19.832 0,-1.177 0.366,-6.76 1.102,-16.747 0,-9.917 -3.346,-18.437 -10.028,-25.56 -2.499,-6.102 -7.712,-10.984 -15.644,-14.655 -0.885,0 -6.982,-2.941 -18.291,-8.816 0,0.662 -0.331,0.994 -0.992,0.994 0,-1.398 -2.278,-2.611 -6.83,-3.636 0,-0.516 -0.517,-1.034 -1.542,-1.543 l -1.104,0 c -0.441,0 -0.954,1.027 -1.542,3.086 -2.499,-1.696 -4.227,-2.538 -5.178,-2.538 -0.591,0 -2.684,0.149 -6.279,0.444 -4.628,-0.662 -7.092,-0.992 -7.383,-0.992 -1.397,0 -3.306,0.181 -5.73,0.548 -3.159,-0.367 -6.649,-0.548 -10.467,-0.548 l -2.534,0.548 c -0.66,-0.367 -1.176,-0.548 -1.541,-0.548 -4.629,0.66 -7.788,1.355 -9.475,2.093 l -3.637,-0.55 0,2.091 c 0.071,0.663 0.401,0.993 0.992,0.993 1.391,-0.661 2.645,-0.993 3.745,-0.993 l 0.441,0.993 5.29,-0.442 1.54,0 c 1.908,0 4.334,0.147 7.271,0.442 3.011,-1.034 5.105,-1.541 6.283,-1.541 0,0.732 7.306,1.431 21.925,2.093 0.731,-0.373 1.281,-0.552 1.654,-0.552 8.443,4.918 12.959,7.382 13.551,7.382 3.744,1.763 6.169,3.67 7.271,5.729 2.273,1.025 7.341,5.213 15.205,12.559 0.586,0 2.314,1.726 5.179,5.18 4.186,1.542 8.044,6.942 11.568,16.197 l -0.549,1.099 0,0.443 c 0,0.587 0.695,1.284 2.093,2.094 l 0.55,0 0,-0.442 c 0,-8.227 -2.795,-15.022 -8.375,-20.383 -1.912,0 -6.099,-3.854 -12.56,-11.569 -0.736,0 -5.252,-3.455 -13.551,-10.356 -2.574,-1.762 -7.457,-4.226 -14.653,-7.381 l 0,-0.552 c 0,-0.661 0.511,-0.993 1.542,-0.993 l 4.738,2.645 c 0.585,-0.369 1.28,-0.551 2.092,-0.551 4.697,3.817 7.822,5.729 9.365,5.729 10.578,11.459 17.699,17.369 21.375,17.741 l 0.551,-0.992 c -3.234,-3.823 -6.721,-6.797 -10.467,-8.925 -2.058,-2.204 -3.084,-3.416 -3.084,-3.637 l 0.549,0 c 7.199,4.333 12.045,8.334 14.545,12.012 l 0,3.637 c 3.671,2.125 6.462,7.194 8.373,15.204 l 1.103,3.635 c -0.371,1.835 -0.55,2.865 -0.55,3.084 0.73,0 1.101,0.366 1.101,1.102 -1.398,3.598 -2.094,5.692 -2.094,6.279 0,0.661 0.332,2.057 0.993,4.188 -0.957,2.054 -1.655,6.391 -2.096,13.001 l -1.54,1.102 -1.104,0 c 0,-0.368 -0.15,-0.882 -0.439,-1.544 0.51,0 1.211,-0.697 2.092,-2.092 0,-1.25 0.146,-4.924 0.441,-11.019 -0.371,-6.317 -1.914,-11.534 -4.627,-15.645 -1.764,-5.142 -4.737,-9.144 -8.925,-12.009 0,-0.954 -2.974,-3.566 -8.925,-7.823 -7.051,-8.008 -15.058,-13.958 -24.018,-17.849 -0.516,-0.812 -3.637,-2.204 -9.367,-4.185 l -0.549,0 c -0.662,0 -0.993,0.364 -0.993,1.098 l 0,0.553 0.993,1.543 0,0.55 c -5.143,-3.16 -11.569,-4.738 -19.281,-4.738 0,-0.369 -0.517,-0.549 -1.544,-0.549 l -12.008,2.092 c -2.644,-0.66 -4.041,-0.992 -4.186,-0.992 l -2.647,1.541 -0.549,0 c -0.813,-0.734 -1.507,-1.098 -2.093,-1.098 -2.426,0.51 -3.637,1.209 -3.637,2.092 l 0,0.551 c 0.071,0.73 0.401,1.101 0.992,1.101 l 6.831,0 c 1.542,0 2.936,-0.371 4.185,-1.101 l 3.637,2.092 3.196,0 c 3.085,-1.03 7.088,-1.726 12.009,-2.092 9.035,1.172 13.553,2.754 13.553,4.738 2.126,0.88 5.249,1.907 9.363,3.084 1.249,1.393 3.343,2.974 6.282,4.739 0,0.585 5.398,5.288 16.198,14.101 0,0.442 2.09,2.718 6.279,6.833 5.729,6.974 8.703,11.824 8.924,14.544 2.422,3.89 3.967,8.594 4.627,14.1 0.73,4.994 1.099,8.485 1.099,10.47 l 0,0.55 c -0.439,3.449 -1.138,5.177 -2.091,5.177 0,-0.368 -0.186,-0.88 -0.551,-1.542 0.365,-3.526 0.551,-6.319 0.551,-8.373 -1.03,0 -1.914,-4.187 -2.645,-12.561 -0.734,0 -1.764,-3.305 -3.084,-9.915 -2.721,-6.173 -7.789,-12.087 -15.205,-17.742 -14.398,-13.219 -23.101,-19.83 -26.112,-19.83 l -2.093,0.99 c 0,1.467 1.907,2.717 5.729,3.748 1.025,2.203 3.815,4.444 8.374,6.722 1.247,1.831 3.34,3.597 6.279,5.287 0,0.513 3.856,4.332 11.569,11.459 4.846,2.569 8.994,8.998 12.451,19.281 l -0.992,0.55 c -4.703,-10.796 -8.373,-16.195 -11.019,-16.195 -6.61,-6.465 -11.127,-10.654 -13.551,-12.561 -11.534,-10.796 -21.634,-16.711 -30.3,-17.738 -0.879,-0.811 -4.372,-1.838 -10.466,-3.084 l -0.55,0 c -0.662,0 -0.992,0.328 -0.992,0.99 l 0,0.551 c 0,1.172 2.603,2.203 7.823,3.085 19.315,7.052 29.783,13.145 31.399,18.29 5.068,5.141 9.068,8.63 12.012,10.467 0,1.249 2.238,3.009 6.718,5.288 0,0.805 1.764,3.929 5.291,9.365 2.422,3.452 4.332,7.455 5.729,12.011 l 0.549,0 c -0.737,1.615 -1.432,2.497 -2.094,2.644 -1.174,-0.958 -2.059,-3.564 -2.643,-7.822 -6.025,-9.991 -10.728,-16.087 -14.103,-18.293 -7.05,-7.49 -11.423,-11.494 -13.11,-12.007 -1.764,-4.042 -8.705,-8.415 -20.825,-13.11 -0.37,-1.253 -5.617,-3.163 -15.754,-5.73 -3.236,-1.765 -5.474,-2.645 -6.722,-2.645 l -1.102,0 c -0.662,0 -0.992,0.365 -0.992,1.103 l 0,0.991 c 2.351,1.907 6.866,3.67 13.552,5.287 1.834,1.248 8.444,4.004 19.833,8.265 0,1.468 2.604,3.414 7.823,5.839 0,1.983 1.761,3.378 5.289,4.186 0,0.808 1.907,2.865 5.729,6.17 1.688,3.378 6.019,7.933 13,13.663 2.494,6.684 4.443,10.869 5.841,12.559 0,0.293 -0.187,0.442 -0.552,0.442 0.662,5.432 0.992,10.32 0.992,14.653 0,0.512 -0.33,2.093 -0.992,4.739 l -0.549,0 -0.994,-0.551 c 0.511,-1.102 1.027,-2.682 1.543,-4.738 0,-5.806 -2.278,-13.993 -6.832,-24.57 -15.424,-16.968 -24.828,-26.003 -28.205,-27.105 -6.685,-3.966 -15.721,-8.152 -27.103,-12.558 l -0.551,0 c -0.737,0 -1.102,0.363 -1.102,1.1 l 0,0.442 c 0.144,0.731 3.305,2.492 9.475,5.287 l 0,0.992 -1.102,1.542 0,0.549 c 6.096,5.952 13.072,11.351 20.934,16.2 3.815,2.716 5.73,4.991 5.73,6.829 0,1.467 2.604,4.079 7.822,7.824 0.511,1.686 1.579,2.899 3.195,3.635 2.934,9.035 5.36,13.554 7.272,13.554 l -0.551,1.099 c 0,0.806 0.551,2.204 1.652,4.188 -0.218,7.271 -1.101,10.907 -2.644,10.907 l 0,-2.093 c 0.662,-3.38 0.992,-5.288 0.992,-5.731 -2.059,-7.639 -3.601,-11.456 -4.627,-11.456 0,-4.703 -3.857,-10.284 -11.57,-16.749 -3.966,-6.904 -9.185,-11.604 -15.644,-14.101 -6.026,-4.188 -9.696,-7.824 -11.019,-10.908 -0.59,0 -2.831,-2.461 -6.719,-7.383 l -5.292,-2.534 -0.991,1.543 0,0.442 c 0,0.44 3.818,3.595 11.46,9.474 0,2.79 2.975,6.094 8.925,9.916 1.686,2.205 6.57,6.391 14.652,12.561 0,1.542 2.239,3.636 6.723,6.281 1.763,2.495 2.644,4.221 2.644,5.178 -0.662,0 -0.993,0.182 -0.993,0.55 -1.47,0 -3.566,-2.609 -6.279,-7.821 -11.313,-7.789 -20.568,-15.648 -27.766,-23.581 -4.481,-5.509 -8.482,-9.843 -12.009,-13 l -0.992,0 -1.102,0.442 6.281,7.932 c 0.734,0 2.128,1.727 4.187,5.178 4.848,3.452 7.271,6.243 7.271,8.374 3.967,3.305 9.365,8.189 16.197,14.655 1.763,0 6.13,3.999 13.11,12.007 5.951,3.451 8.926,8.3 8.926,14.545 -0.37,2.788 -1.067,4.186 -2.094,4.186 l 0,-6.72 c 0,-1.763 -2.093,-5.069 -6.279,-9.918 -1.102,-1.982 -6.501,-6.354 -16.198,-13.11 0,-1.102 -2.277,-2.83 -6.831,-5.178 -3.819,-3.821 -8.522,-9.221 -14.102,-16.197 -0.811,-0.075 -3.415,-3.05 -7.822,-8.925 -5.509,-5.583 -9.33,-8.37 -11.46,-8.37 l -0.549,0 c -0.739,0 -1.104,0.506 -1.104,1.541 0.365,0.731 0.553,1.283 0.553,1.651 l -0.553,0 c -1.397,-0.735 -2.092,-1.616 -2.092,-2.644 l -0.992,0 0,2.644 c 2.129,3.82 4.737,6.426 7.823,7.823 0,1.175 2.275,3.781 6.83,7.824 3.086,5.874 4.626,10.247 4.626,13.111 -0.589,0 -1.801,-2.094 -3.634,-6.282 -5.878,-8.373 -10.908,-14.468 -15.093,-18.288 l -0.552,0 0,3.083 c 7.417,7.493 11.788,13.589 13.112,18.292 0.51,0.071 2.053,2.678 4.627,7.82 0.584,0.444 2.678,5.326 6.28,14.656 2.128,2.937 4.553,8.666 7.271,17.187 2.203,1.322 4.148,4.809 5.84,10.469 10.867,14.393 19.901,22.255 27.104,23.576 0.807,0 1.502,-0.185 2.093,-0.551 8.96,4.186 14.874,6.28 17.739,6.28 M -148.412,0 l 1.652,0 0,-0.55 c 0,-0.514 -0.701,-1.211 -2.092,-2.094 l -0.552,0 0,1.654 c 0.071,0.662 0.401,0.99 0.992,0.99 m 3.745,0 3.086,0 c 0.73,-0.074 1.103,-0.403 1.103,-0.99 l -6.833,-7.933 c 0,-1.397 -0.516,-2.094 -1.541,-2.094 l -0.552,0 0,5.287 c 2.791,3.82 4.366,5.73 4.737,5.73 m 17.74,0 2.094,0 0,-0.55 c -5.508,-6.612 -9.333,-12.854 -11.459,-18.728 -3.163,-4.116 -7.203,-11.278 -12.12,-21.487 l -0.992,0 0,3.194 c 0.662,4.188 2.57,7.823 5.73,10.909 0,1.027 2.458,5.399 7.382,13.111 0,0.883 1.212,3.305 3.635,7.272 0.882,4.185 2.79,6.279 5.73,6.279 m -7.824,0 2.534,0 0,-0.55 c -1.617,-1.397 -3.525,-5.583 -5.728,-12.561 -3.455,-4.847 -6.942,-10.577 -10.467,-17.187 l -0.992,0 0,4.186 c 1.908,1.835 3.637,5.324 5.178,10.469 2.645,1.906 4.92,5.213 6.83,9.913 -1.691,0 -5.363,-5.215 -11.016,-15.643 l -0.992,0 0,5.179 c 1.763,3.083 3.67,5.874 5.73,8.372 0,1.543 2.974,4.151 8.923,7.822 m 13.552,0 3.085,0 0,-0.55 c -5.879,-6.612 -8.813,-10.798 -8.813,-12.561 0.439,0 3.745,3.342 9.915,10.027 0.883,0 2.093,1.025 3.635,3.084 l 2.646,0 0,-0.99 c -3.086,-4.188 -7.092,-7.861 -12.009,-11.017 0,-0.517 -1.213,-1.73 -3.636,-3.636 l -1.102,0 0,1.542 c -2.498,-2.203 -5.289,-7.604 -8.375,-16.197 -1.693,-1.397 -2.534,-3.305 -2.534,-5.729 -0.88,0 -2.975,-2.974 -6.28,-8.925 -1.175,0 -2.424,-2.423 -3.745,-7.272 l -0.992,0 0,5.177 16.747,30.3 c 2.495,6.611 6.317,12.193 11.458,16.747 m 15.205,0 3.084,0 0,-0.99 c -1.031,0 -4.336,-3.491 -9.915,-10.468 0,-0.807 -5.219,-9.511 -15.645,-26.113 -6.32,-11.017 -10.175,-19.06 -11.569,-24.128 l -8.813,-15.095 -0.552,0 0,4.188 c 2.424,6.169 5.543,12.593 9.365,19.28 0,1.102 2.606,5.986 7.822,14.656 0.07,1.466 1.834,4.441 5.29,8.922 0,0.588 2.603,5.103 7.823,13.554 l -0.552,0 c -2.72,-1.249 -5.509,-5.069 -8.373,-11.46 -3.087,-3.601 -8.634,-13.369 -16.638,-29.307 l -3.745,-6.722 -0.992,0 0,4.63 c 0,0.952 1.724,4.442 5.178,10.465 3.375,4.553 5.655,8.925 6.83,13.11 1.614,1.324 4.408,6.024 8.374,14.105 0.587,0 3.563,3.304 8.926,9.915 l 0.992,0.441 c 0.661,0 0.99,-0.516 0.99,-1.542 -0.294,-0.661 -0.44,-1.178 -0.44,-1.542 l 0.992,0 c 0,2.865 3.856,7.565 11.568,14.101 m 9.367,0 3.635,0 c 0.732,-0.074 1.102,-0.403 1.102,-0.99 -8.525,-3.084 -17.408,-12.671 -26.664,-28.758 l -8.924,-16.747 c 0,-1.101 -1.913,-5.105 -5.729,-12.008 0,-0.368 -0.185,-0.883 -0.552,-1.544 l 1.102,-0.55 c 1.612,1.614 3.009,4.22 4.187,7.821 0.511,0.736 1.721,3.71 3.637,8.927 l 4.184,6.72 c 1.614,1.835 5.951,8.998 13.001,21.486 6.758,6.83 13.402,11.53 19.943,14.101 l 3.086,-0.552 C -82.71,-0.696 -78.889,0 -73.158,0 l 4.183,0 0,-0.99 c -6.539,-1.104 -11.939,-2.499 -16.195,-4.188 -5.583,0 -12.524,-5.397 -20.824,-16.195 -2.499,0 -7.383,-7.678 -14.655,-23.027 l -11.016,-23.469 c -0.957,-3.524 -3.05,-7.53 -6.28,-12.009 -1.763,-4.556 -3.678,-6.831 -5.729,-6.831 l -0.552,0.992 c 0,0.955 1.061,2.9 3.195,5.839 3.449,5.73 5.178,9.179 5.178,10.355 0,0.368 1.063,2.83 3.196,7.384 l -0.55,0 c -1.694,-0.221 -4.998,-6.135 -9.918,-17.739 -1.101,-0.443 -2.865,-2.902 -5.287,-7.381 l -0.44,0 -0.552,1.1 0,2.536 c 1.172,1.32 1.873,3.083 2.093,5.287 1.173,0 3.268,3.636 6.28,10.908 10.207,22.401 16.307,34.265 18.291,35.586 3.449,6.613 6.754,11.825 9.915,15.648 0,2.054 1.577,4.148 4.739,6.279 0.438,1.835 4.256,5.141 11.459,9.915"
             style="fill:#7e7e7d;fill-opacity:1;fill-rule:nonzero;stroke:none"
             id="path88" /></g></g></g><g
       id="g90"><g
         id="g92"
         clip-path="url(#clipPath94)"><g
           id="g98"
           transform="translate(351.1001,362.8184)"><path
             d="m 0,0 c 0,5.5 4.473,10.493 9.94,11.096 l 116.122,12.808 c 5.467,0.603 10.611,-3.354 11.434,-8.792 l 18.011,-119.224 c 0.823,-5.439 -2.995,-10.202 -8.481,-10.587 L 9.976,-124.301 C 4.489,-124.686 0,-120.5 0,-115 L 0,0 z"
             style="fill:none;stroke:#5c5c5b;stroke-opacity:1;stroke-width:2;stroke-linecap:butt;stroke-linejoin:miter;stroke-miterlimit:10;stroke-dasharray:none"
             id="path100" /></g><g
           id="g102"
           transform="translate(412.1001,235.8184)"><path
             d="M 0,0 -8,-14"
             style="fill:none;stroke:#5c5c5b;stroke-opacity:1;stroke-width:2;stroke-linecap:butt;stroke-linejoin:miter;stroke-miterlimit:10;stroke-dasharray:none"
             id="path104" /></g><g
           id="g106"
           transform="translate(451.5459,237.2363)"><path
             d="M 0,0 8.985,-13.391"
             style="fill:none;stroke:#5c5c5b;stroke-opacity:1;stroke-width:2;stroke-linecap:butt;stroke-linejoin:miter;stroke-miterlimit:10;stroke-dasharray:none"
             id="path108" /></g><g
           id="g110"
           transform="translate(391.1001,401.8184)"><path
             d="M 0,0 24,-12 63,52"
             style="fill:none;stroke:#5c5c5b;stroke-opacity:1;stroke-width:2;stroke-linecap:butt;stroke-linejoin:miter;stroke-miterlimit:10;stroke-dasharray:none"
             id="path112" /></g><g
           id="g114"
           transform="translate(458.293,453.8184)"><path
             d="m 0,0 c 0,-2.315 -1.877,-4.192 -4.192,-4.192 -2.315,0 -4.192,1.877 -4.192,4.192 0,2.315 1.877,4.191 4.192,4.191 C -1.877,4.191 0,2.315 0,0"
             style="fill:#5c5c5b;fill-opacity:1;fill-rule:nonzero;stroke:none"
             id="path116" /></g><g
           id="g118"
           transform="translate(392.5049,404.0732)"><path
             d="m 0,0 c 0,-2.315 -1.876,-4.192 -4.191,-4.192 -2.315,0 -4.192,1.877 -4.192,4.192 0,2.315 1.877,4.191 4.192,4.191 C -1.876,4.191 0,2.315 0,0"
             style="fill:#5c5c5b;fill-opacity:1;fill-rule:nonzero;stroke:none"
             id="path120" /></g></g></g></g></svg>